<?xml version="1.0" standalone="no"?>
<!DOCTYPE svg PUBLIC "-//W3C//DTD SVG 20010904//EN"
 "http://www.w3.org/TR/2001/REC-SVG-20010904/DTD/svg10.dtd">
<svg version="1.0" xmlns="http://www.w3.org/2000/svg"
 width="460.000000pt" height="460.000000pt" viewBox="0 0 460.000000 460.000000"
 preserveAspectRatio="xMidYMid meet">
<metadata>
Created by potrace 1.11, written by Peter Selinger 2001-2013
</metadata>
<g transform="translate(0.000000,460.000000) scale(0.100000,-0.100000)"
fill="#000000" stroke="none">
<path d="M2070 4562 c0 -38 -1 -38 -37 -38 -37 1 -38 0 -38 -37 0 -20 -4 -37
-10 -38 -5 -1 -23 -2 -40 -3 -26 -1 -30 -5 -30 -31 0 -16 5 -33 10 -37 6 -4
-322 -8 -727 -8 l-737 0 -3 -37 c-3 -39 -2 -38 -61 -42 -10 -1 -17 -7 -16 -13
1 -7 1 -25 0 -39 -1 -23 -5 -26 -35 -24 -43 4 -41 16 -40 -290 1 -199 3 -240
15 -241 8 -1 19 -3 24 -4 6 -2 17 -4 25 -4 11 -1 15 -12 14 -39 0 -37 0 -37
35 -35 35 3 36 2 39 -34 3 -41 0 -40 92 -40 30 0 57 -4 60 -8 4 -7 5 -356 1
-435 -1 -17 -8 -21 -38 -20 -37 0 -38 0 -36 -37 1 -38 1 -38 -38 -38 -39 0
-39 0 -39 -39 0 -37 -1 -39 -30 -37 -37 3 -50 -11 -47 -50 2 -28 0 -29 -36
-27 -32 2 -37 0 -38 -20 -1 -12 -2 -29 -3 -37 -1 -10 -14 -16 -40 -18 -37 -3
-38 -4 -34 -38 2 -19 0 -35 -4 -35 -4 -1 -23 -2 -40 -3 -18 0 -34 -7 -34 -13
-1 -7 -2 -26 -3 -42 -1 -25 -4 -28 -31 -25 -33 4 -50 -16 -44 -53 3 -21 0 -23
-36 -23 l-40 0 0 -190 c0 -174 1 -190 18 -191 58 -4 57 -3 57 -39 0 -34 1 -35
41 -38 39 -3 40 -4 38 -37 -2 -22 2 -36 9 -37 7 0 17 -2 22 -3 6 -2 18 -3 27
-4 12 -1 18 -12 20 -38 3 -36 5 -38 38 -38 33 0 35 -2 36 -32 0 -41 6 -47 47
-47 30 -1 32 -3 32 -36 0 -32 3 -35 30 -36 17 -1 33 -2 38 -3 4 -1 7 -17 7
-36 0 -26 4 -35 18 -36 58 -4 57 -3 57 -41 0 -37 1 -38 36 -38 21 0 39 -5 41
-12 2 -7 3 -266 2 -575 l-1 -563 39 0 c37 0 38 -1 38 -39 0 -30 4 -38 18 -38
60 0 63 -1 59 -37 -3 -29 -1 -35 17 -38 12 -2 149 -3 306 -2 l285 0 5 39 c5
38 7 40 40 40 34 0 35 1 34 37 0 37 1 38 38 38 39 0 40 1 41 56 1 17 8 21 39
22 38 2 38 2 38 -37 0 -39 1 -40 38 -43 38 -3 37 -2 41 -60 1 -14 8 -17 31
-14 33 4 44 -6 46 -44 1 -14 2 -28 3 -31 0 -3 17 -5 36 -2 35 3 35 3 35 -37 0
-40 0 -40 39 -40 38 0 38 0 37 -38 -1 -33 2 -37 24 -38 57 -3 56 -3 54 -39 -3
-36 -2 -37 49 -37 25 -1 27 -4 27 -39 l0 -39 231 0 231 0 -4 31 c-5 33 11 48
50 44 12 -1 23 3 24 9 0 6 2 16 3 21 2 6 3 20 4 31 1 18 6 21 36 17 36 -4 37
-3 37 50 1 25 4 27 39 27 38 0 39 1 39 38 l0 38 788 -1 c433 0 795 1 805 4 16
3 17 22 17 232 l0 228 23 -1 c55 -2 54 -5 54 105 1 56 1 108 2 115 1 9 13 13
38 10 l37 -3 1 264 c0 161 -4 265 -10 269 -5 3 -21 6 -35 6 -31 -1 -39 11 -33
47 l4 29 -155 0 -156 0 0 41 c0 36 3 40 23 39 52 -5 58 -1 52 30 -6 32 12 48
52 45 25 -2 31 8 28 47 -2 29 9 34 59 28 15 -1 18 4 14 30 -5 31 15 53 45 49
29 -3 35 3 33 32 -3 34 18 51 52 42 23 -6 24 -3 24 50 1 25 4 27 40 27 l38 0
-2 192 -3 192 -35 0 c-29 1 -35 5 -36 24 -1 12 -2 29 -3 37 -1 10 -12 15 -36
15 -21 0 -35 5 -36 13 -1 6 -2 23 -2 37 -2 22 -7 25 -37 25 -33 0 -35 2 -40
40 -5 36 -8 40 -35 41 -16 1 -34 2 -38 3 -5 0 -8 13 -7 29 3 46 1 48 -38 44
-34 -3 -38 -1 -39 20 -1 49 -3 59 -15 57 -46 -6 -57 1 -60 38 -3 35 -5 37 -38
38 -30 0 -35 3 -36 25 -1 14 -2 31 -3 38 0 7 -15 12 -35 12 -27 0 -35 4 -38
23 -7 35 4 53 32 53 38 0 49 11 44 43 -4 23 -1 30 16 34 12 3 30 4 41 2 16 -3
19 2 19 35 0 38 1 39 38 42 35 3 37 5 37 38 0 32 2 35 30 36 43 0 53 9 49 44
-3 25 0 30 19 30 51 0 63 9 59 45 -4 33 -3 34 34 37 37 3 39 5 40 38 0 32 2
35 32 36 39 0 46 7 47 47 0 29 2 31 38 30 l37 0 0 346 0 347 -39 -2 c-32 -1
-38 2 -38 20 0 12 -1 29 -2 39 -1 16 -46 17 -806 17 l-804 0 3 -35 c1 -19 -2
-36 -8 -38 -6 -2 -40 -3 -76 -3 l-65 1 -3 37 c-3 35 -5 37 -40 40 -35 3 -37 5
-37 38 0 32 -2 35 -33 36 -39 1 -46 7 -48 42 -1 15 -2 30 -3 33 0 3 -17 5 -36
4 -34 -3 -35 -2 -35 36 l0 39 -230 0 -230 0 0 -38z"/>
</g>
</svg>
